<svg xmlns="http://www.w3.org/2000/svg" viewBox="0 0 1024 1024">
  <path fill="#409eff" d="M832 64H192c-17.7 0-32 14.3-32 32v832c0 17.7 14.3 32 32 32h640c17.7 0 32-14.3 32-32V96c0-17.7-14.3-32-32-32zm-600 72h560v208H232V136zm0 760V472h560v424H232z"/>
  <path fill="#409eff" d="M724.8 264c-8.8 0-16-7.2-16-16s7.2-16 16-16h-32c-8.8 0-16 7.2-16 16s7.2 16 16 16h32z"/>
  <path fill="#409eff" d="M304 232h128c4.4 0 8-3.6 8-8v-32c0-4.4-3.6-8-8-8H304c-4.4 0-8 3.6-8 8v32c0 4.4 3.6 8 8 8z"/>
  <path fill="#409eff" d="M304 576h400c4.4 0 8-3.6 8-8v-32c0-4.4-3.6-8-8-8H304c-4.4 0-8 3.6-8 8v32c0 4.4 3.6 8 8 8zm0 96h400c4.4 0 8-3.6 8-8v-32c0-4.4-3.6-8-8-8H304c-4.4 0-8 3.6-8 8v32c0 4.4 3.6 8 8 8zm0 96h280c4.4 0 8-3.6 8-8v-32c0-4.4-3.6-8-8-8H304c-4.4 0-8 3.6-8 8v32c0 4.4 3.6 8 8 8z"/>
</svg>
